<?xml version="1.0" encoding="UTF-8"?>
<!DOCTYPE svg PUBLIC "-//W3C//DTD SVG 1.1//EN" "http://www.w3.org/Graphics/SVG/1.1/DTD/svg11.dtd">
<svg xmlns="http://www.w3.org/2000/svg" version="1.1" width="361px" height="140px" style="shape-rendering:geometricPrecision; text-rendering:geometricPrecision; image-rendering:optimizeQuality; fill-rule:evenodd; clip-rule:evenodd" xmlns:xlink="http://www.w3.org/1999/xlink">
<g><path style="opacity:1" fill="#fefefe" d="M -0.5,-0.5 C 119.833,-0.5 240.167,-0.5 360.5,-0.5C 360.5,46.1667 360.5,92.8333 360.5,139.5C 240.167,139.5 119.833,139.5 -0.5,139.5C -0.5,92.8333 -0.5,46.1667 -0.5,-0.5 Z"/></g>
<g><path style="opacity:1" fill="#7fb2ce" d="M 167.5,23.5 C 167.167,23.5 166.833,23.5 166.5,23.5C 122.833,23.5 79.1667,23.5 35.5,23.5C 35.5,33.1667 35.5,42.8333 35.5,52.5C 35.5,52.8333 35.5,53.1667 35.5,53.5C 34.5058,43.3468 34.1724,33.0135 34.5,22.5C 79.0031,22.1679 123.336,22.5013 167.5,23.5 Z"/></g>
<g><path style="opacity:1" fill="#0e81c1" d="M 166.5,23.5 C 166.5,33.1667 166.5,42.8333 166.5,52.5C 122.833,52.5 79.1667,52.5 35.5,52.5C 35.5,42.8333 35.5,33.1667 35.5,23.5C 79.1667,23.5 122.833,23.5 166.5,23.5 Z"/></g>
<g><path style="opacity:1" fill="#eff5f6" d="M 93.5,30.5 C 96.8333,30.5 100.167,30.5 103.5,30.5C 103.5,31.5 103.5,32.5 103.5,33.5C 102.5,33.5 101.5,33.5 100.5,33.5C 100.5,37.8333 100.5,42.1667 100.5,46.5C 99.1667,46.5 97.8333,46.5 96.5,46.5C 96.5,42.1667 96.5,37.8333 96.5,33.5C 95.5,33.5 94.5,33.5 93.5,33.5C 93.5,32.5 93.5,31.5 93.5,30.5 Z"/></g>
<g><path style="opacity:1" fill="#f2f4f7" d="M 109.5,30.5 C 109.5,32.5 109.5,34.5 109.5,36.5C 110.833,36.5 112.167,36.5 113.5,36.5C 113.5,34.5 113.5,32.5 113.5,30.5C 114.833,30.5 116.167,30.5 117.5,30.5C 117.5,35.5 117.5,40.5 117.5,45.5C 116.5,45.5 115.5,45.5 114.5,45.5C 114.784,43.5853 114.451,41.9187 113.5,40.5C 112.081,39.5489 110.415,39.2155 108.5,39.5C 108.5,41.5 108.5,43.5 108.5,45.5C 107.5,45.5 106.5,45.5 105.5,45.5C 105.5,40.5 105.5,35.5 105.5,30.5C 106.833,30.5 108.167,30.5 109.5,30.5 Z"/></g>
<g><path style="opacity:1" fill="#e3eef3" d="M 58.5,29.5 C 61.8333,29.5 65.1667,29.5 68.5,29.5C 68.5,30.8333 68.5,32.1667 68.5,33.5C 66.5,33.5 64.5,33.5 62.5,33.5C 62.5,34.5 62.5,35.5 62.5,36.5C 64.1667,36.5 65.8333,36.5 67.5,36.5C 67.5,37.5 67.5,38.5 67.5,39.5C 65.8333,39.5 64.1667,39.5 62.5,39.5C 62.5,40.5 62.5,41.5 62.5,42.5C 64.5,42.5 66.5,42.5 68.5,42.5C 68.5,43.8333 68.5,45.1667 68.5,46.5C 65.1667,46.5 61.8333,46.5 58.5,46.5C 58.6567,45.1266 58.49,43.7932 58,42.5C 53.8722,46.0282 49.0389,47.3616 43.5,46.5C 43.5,41.1667 43.5,35.8333 43.5,30.5C 47.1817,30.3347 50.8484,30.5014 54.5,31C 55.9308,31.4652 57.0975,32.2986 58,33.5C 58.49,32.2068 58.6567,30.8734 58.5,29.5 Z"/></g>
<g><path style="opacity:1" fill="#1080c0" d="M 48.5,33.5 C 54.6426,34.0262 55.9759,36.8595 52.5,42C 51.2068,42.49 49.8734,42.6567 48.5,42.5C 48.5,39.5 48.5,36.5 48.5,33.5 Z"/></g>
<g><path style="opacity:1" fill="#8ebfd9" d="M 93.5,30.5 C 98.8333,29.1667 104.167,29.1667 109.5,30.5C 108.167,30.5 106.833,30.5 105.5,30.5C 105.5,35.5 105.5,40.5 105.5,45.5C 106.5,45.5 107.5,45.5 108.5,45.5C 108.5,43.5 108.5,41.5 108.5,39.5C 110.415,39.2155 112.081,39.5489 113.5,40.5C 112.167,40.5 110.833,40.5 109.5,40.5C 109.5,42.5 109.5,44.5 109.5,46.5C 107.833,46.5 106.167,46.5 104.5,46.5C 104.5,42.5 104.5,38.5 104.5,34.5C 103.5,34.5 102.5,34.5 101.5,34.5C 101.817,38.7016 101.483,42.7016 100.5,46.5C 100.5,42.1667 100.5,37.8333 100.5,33.5C 101.5,33.5 102.5,33.5 103.5,33.5C 103.5,32.5 103.5,31.5 103.5,30.5C 100.167,30.5 96.8333,30.5 93.5,30.5 Z"/></g>
<g><path style="opacity:1" fill="#add1e1" d="M 113.5,30.5 C 114.919,29.5489 116.585,29.2155 118.5,29.5C 118.5,35.1667 118.5,40.8333 118.5,46.5C 116.833,46.5 115.167,46.5 113.5,46.5C 113.5,44.5 113.5,42.5 113.5,40.5C 114.451,41.9187 114.784,43.5853 114.5,45.5C 115.5,45.5 116.5,45.5 117.5,45.5C 117.5,40.5 117.5,35.5 117.5,30.5C 116.167,30.5 114.833,30.5 113.5,30.5 Z"/></g>
<g><path style="opacity:1" fill="#e5eff4" d="M 119.5,29.5 C 120.833,29.5 122.167,29.5 123.5,29.5C 123.5,33.8333 123.5,38.1667 123.5,42.5C 124.5,42.5 125.5,42.5 126.5,42.5C 124.835,33.3417 128.501,29.175 137.5,30C 139.587,30.7922 141.421,31.9588 143,33.5C 143.49,32.2068 143.657,30.8734 143.5,29.5C 144.873,29.3433 146.207,29.51 147.5,30C 149.667,32.8333 151.833,35.6667 154,38.5C 154.497,35.854 154.664,33.1873 154.5,30.5C 155.833,30.5 157.167,30.5 158.5,30.5C 158.5,35.8333 158.5,41.1667 158.5,46.5C 157.127,46.6567 155.793,46.49 154.5,46C 152.667,43.5 150.833,41 149,38.5C 148.503,41.146 148.336,43.8127 148.5,46.5C 146.833,46.5 145.167,46.5 143.5,46.5C 143.657,45.1266 143.49,43.7932 143,42.5C 141.786,44.0488 140.286,45.2155 138.5,46C 132.258,45.8835 125.925,46.0502 119.5,46.5C 119.5,40.8333 119.5,35.1667 119.5,29.5 Z"/></g>
<g><path style="opacity:1" fill="#2585c0" d="M 132.5,33.5 C 139.494,33.4149 141.161,36.2482 137.5,42C 130.416,42.475 128.749,39.6417 132.5,33.5 Z"/></g>
<g><path style="opacity:1" fill="#eaf2f5" d="M 74.5,29.5 C 78.4952,28.8827 81.8285,30.0494 84.5,33C 84.0019,34.1581 83.1685,34.9915 82,35.5C 75.966,31.8725 73.2993,33.5392 74,40.5C 76.9663,43.2652 79.633,42.9318 82,39.5C 83.8333,36.5 85.6667,33.5 87.5,30.5C 89.0453,29.5481 90.712,29.2148 92.5,29.5C 92.5,35.1667 92.5,40.8333 92.5,46.5C 91.1667,46.5 89.8333,46.5 88.5,46.5C 88.5,45.5 88.5,44.5 88.5,43.5C 84.705,43.9465 81.0384,44.9465 77.5,46.5C 70.1619,45.665 67.3286,41.665 69,34.5C 70.7297,32.5981 72.563,30.9314 74.5,29.5 Z"/></g>
<g><path style="opacity:1" fill="#4e96c5" d="M 166.5,23.5 C 166.833,23.5 167.167,23.5 167.5,23.5C 167.5,33.5 167.5,43.5 167.5,53.5C 123.5,53.5 79.5,53.5 35.5,53.5C 35.5,53.1667 35.5,52.8333 35.5,52.5C 79.1667,52.5 122.833,52.5 166.5,52.5C 166.5,42.8333 166.5,33.1667 166.5,23.5 Z"/></g>
<g><path style="opacity:1" fill="#303030" d="M 82.5,70.5 C 87.5988,70.1746 92.5988,70.6746 97.5,72C 98.435,74.3806 98.7683,76.8806 98.5,79.5C 94.289,77.9222 89.9557,77.4222 85.5,78C 80.3772,79.9223 77.7106,83.589 77.5,89C 79.0768,101.272 85.7434,105.105 97.5,100.5C 99.7237,107.857 96.8904,110.857 89,109.5C 73.4703,107.827 67.137,99.1604 70,83.5C 72.3531,77.3154 76.5198,72.982 82.5,70.5 Z"/></g>
<g><path style="opacity:1" fill="#7d7d7d" d="M 260.5,71.5 C 261.568,70.5655 262.901,70.2322 264.5,70.5C 264.5,83.5 264.5,96.5 264.5,109.5C 261.615,109.806 258.948,109.473 256.5,108.5C 258.833,108.5 261.167,108.5 263.5,108.5C 263.5,96.1667 263.5,83.8333 263.5,71.5C 262.5,71.5 261.5,71.5 260.5,71.5 Z"/></g>
<g><path style="opacity:1" fill="#333333" d="M 120.5,70.5 C 121.978,70.238 123.311,70.5713 124.5,71.5C 129.833,83.8333 135.167,96.1667 140.5,108.5C 137.894,109.652 135.227,109.818 132.5,109C 131.74,107.559 131.074,106.059 130.5,104.5C 125.198,103.337 119.864,103.171 114.5,104C 113.74,105.441 113.074,106.941 112.5,108.5C 109.914,109.48 107.247,109.813 104.5,109.5C 109.553,96.3923 114.887,83.3923 120.5,70.5 Z"/></g>
<g><path style="opacity:1" fill="#333333" d="M 148.5,70.5 C 157.665,69.4421 166.332,70.9421 174.5,75C 181.529,83.5092 182.363,92.6758 177,102.5C 168.654,109.002 159.154,111.335 148.5,109.5C 148.5,96.5 148.5,83.5 148.5,70.5 Z"/></g>
<g><path style="opacity:1" fill="#5d5d5d" d="M 215.5,71.5 C 207.5,71.5 199.5,71.5 191.5,71.5C 191.5,83.8333 191.5,96.1667 191.5,108.5C 199.5,108.5 207.5,108.5 215.5,108.5C 207.35,109.493 199.017,109.826 190.5,109.5C 190.5,96.5 190.5,83.5 190.5,70.5C 199.017,70.1739 207.35,70.5073 215.5,71.5 Z"/></g>
<g><path style="opacity:1" fill="#2f2f2f" d="M 215.5,71.5 C 215.5,73.5 215.5,75.5 215.5,77.5C 209.833,77.5 204.167,77.5 198.5,77.5C 198.5,80.5 198.5,83.5 198.5,86.5C 203.5,86.5 208.5,86.5 213.5,86.5C 213.5,88.8333 213.5,91.1667 213.5,93.5C 208.5,93.5 203.5,93.5 198.5,93.5C 198.5,96.1667 198.5,98.8333 198.5,101.5C 204.167,101.5 209.833,101.5 215.5,101.5C 215.5,103.833 215.5,106.167 215.5,108.5C 207.5,108.5 199.5,108.5 191.5,108.5C 191.5,96.1667 191.5,83.8333 191.5,71.5C 199.5,71.5 207.5,71.5 215.5,71.5 Z"/></g>
<g><path style="opacity:1" fill="#2f2f2f" d="M 260.5,71.5 C 261.5,71.5 262.5,71.5 263.5,71.5C 263.5,83.8333 263.5,96.1667 263.5,108.5C 261.167,108.5 258.833,108.5 256.5,108.5C 256.666,101.492 256.5,94.4921 256,87.5C 251.965,91.2002 248.298,95.2002 245,99.5C 241.635,95.3068 238.135,91.3068 234.5,87.5C 233.509,94.3134 233.175,101.313 233.5,108.5C 231.167,108.5 228.833,108.5 226.5,108.5C 226.5,95.8333 226.5,83.1667 226.5,70.5C 227.873,70.3433 229.207,70.51 230.5,71C 235.214,76.9256 240.047,82.7589 245,88.5C 250.033,82.6377 255.199,76.971 260.5,71.5 Z"/></g>
<g><path style="opacity:1" fill="#323232" d="M 293.5,94.5 C 292.514,98.97 292.181,103.637 292.5,108.5C 290.167,108.5 287.833,108.5 285.5,108.5C 285.819,103.637 285.486,98.97 284.5,94.5C 280.424,86.5735 276.09,78.7402 271.5,71C 274.76,70.2165 277.927,70.3832 281,71.5C 283.094,76.7023 285.928,81.3689 289.5,85.5C 292.625,80.7505 295.625,75.9172 298.5,71C 301.227,70.1816 303.894,70.3483 306.5,71.5C 301.902,79.0318 297.568,86.6985 293.5,94.5 Z"/></g>
<g><path style="opacity:1" fill="#f1bb1f" d="M 45.5,70.5 C 47.1439,70.2865 48.6439,70.6198 50,71.5C 55.4622,84.085 60.6289,96.7516 65.5,109.5C 62.5,109.5 59.5,109.5 56.5,109.5C 54.6164,101.069 51.6164,93.0688 47.5,85.5C 43.3773,93.0788 40.3773,101.079 38.5,109.5C 35.5,109.5 32.5,109.5 29.5,109.5C 34.6735,96.5189 40.0069,83.5189 45.5,70.5 Z"/></g>
<g><path style="opacity:1" fill="#fbfbfb" d="M 156.5,78.5 C 168.601,77.1011 173.768,82.4344 172,94.5C 168.719,100.72 163.553,103.053 156.5,101.5C 156.5,93.8333 156.5,86.1667 156.5,78.5 Z"/></g>
<g><path style="opacity:1" fill="#f1f1f1" d="M 121.5,84.5 C 124.312,87.9132 125.979,91.9132 126.5,96.5C 123.428,96.8174 120.428,96.4841 117.5,95.5C 119.234,91.9628 120.568,88.2961 121.5,84.5 Z"/></g>
<g><path style="opacity:1" fill="#adadad" d="M 215.5,77.5 C 210.36,78.4881 205.026,78.8214 199.5,78.5C 199.5,80.8333 199.5,83.1667 199.5,85.5C 204.363,85.1805 209.03,85.5139 213.5,86.5C 208.5,86.5 203.5,86.5 198.5,86.5C 198.5,83.5 198.5,80.5 198.5,77.5C 204.167,77.5 209.833,77.5 215.5,77.5 Z"/></g>
<g><path style="opacity:1" fill="#7f7f7f" d="M 234.5,87.5 C 234.5,94.8333 234.5,102.167 234.5,109.5C 231.615,109.806 228.948,109.473 226.5,108.5C 228.833,108.5 231.167,108.5 233.5,108.5C 233.175,101.313 233.509,94.3134 234.5,87.5 Z"/></g>
<g><path style="opacity:1" fill="#8a8a8a" d="M 284.5,94.5 C 285.486,98.97 285.819,103.637 285.5,108.5C 287.833,108.5 290.167,108.5 292.5,108.5C 292.181,103.637 292.514,98.97 293.5,94.5C 293.5,99.5 293.5,104.5 293.5,109.5C 290.5,109.5 287.5,109.5 284.5,109.5C 284.5,104.5 284.5,99.5 284.5,94.5 Z"/></g>
</svg>
